<?xml version="1.0" encoding="UTF-8"?>
<svg version="1.1" xmlns="http://www.w3.org/2000/svg" width="60" height="60">
<path d="M0 0 C1.6097168 0.01450195 1.6097168 0.01450195 3.25195312 0.02929688 C4.37150391 0.05443359 5.49105469 0.07957031 6.64453125 0.10546875 C7.77568359 0.11900391 8.90683594 0.13253906 10.07226562 0.14648438 C12.86766442 0.18186917 15.66211017 0.23123927 18.45703125 0.29296875 C18.45703125 1.28296875 18.45703125 2.27296875 18.45703125 3.29296875 C10.53703125 3.62296875 2.61703125 3.95296875 -5.54296875 4.29296875 C-5.21296875 10.56296875 -4.88296875 16.83296875 -4.54296875 23.29296875 C12.61703125 23.29296875 29.77703125 23.29296875 47.45703125 23.29296875 C47.45703125 17.02296875 47.45703125 10.75296875 47.45703125 4.29296875 C36.56703125 3.79796875 36.56703125 3.79796875 25.45703125 3.29296875 C25.45703125 2.30296875 25.45703125 1.31296875 25.45703125 0.29296875 C29.22771957 0.20598375 32.99815057 0.15258296 36.76953125 0.10546875 C37.84138672 0.08033203 38.91324219 0.05519531 40.01757812 0.02929688 C41.04560547 0.01962891 42.07363281 0.00996094 43.1328125 0 C44.55460815 -0.02356567 44.55460815 -0.02356567 46.00512695 -0.04760742 C48.45703125 0.29296875 48.45703125 0.29296875 50.26708984 1.49658203 C51.84916707 3.88495385 51.82983699 5.47412296 51.8203125 8.328125 C51.81966797 9.30201172 51.81902344 10.27589844 51.81835938 11.27929688 C51.80224609 12.29443359 51.78613281 13.30957031 51.76953125 14.35546875 C51.77275391 15.37447266 51.77597656 16.39347656 51.77929688 17.44335938 C51.72402266 25.02597734 51.72402266 25.02597734 49.45703125 27.29296875 C47.10400391 27.54693604 47.10400391 27.54693604 44.12109375 27.55175781 C43.00653809 27.55806213 41.89198242 27.56436646 40.74365234 27.57086182 C39.53531738 27.56681335 38.32698242 27.56276489 37.08203125 27.55859375 C35.22892334 27.56146393 35.22892334 27.56146393 33.33837891 27.56439209 C30.05111718 27.56610485 26.76404338 27.55803574 23.47680664 27.546875 C21.45908595 27.54297272 19.44153924 27.54686046 17.42382812 27.55371094 C13.55981297 27.56602879 9.69605697 27.56457853 5.83203125 27.55859375 C4.62369629 27.56264221 3.41536133 27.56669067 2.17041016 27.57086182 C1.05585449 27.5645575 -0.05870117 27.55825317 -1.20703125 27.55175781 C-2.1913916 27.55016663 -3.17575195 27.54857544 -4.18994141 27.54693604 C-6.54296875 27.29296875 -6.54296875 27.29296875 -8.54296875 25.29296875 C-8.99592208 21.66652371 -8.86701677 18.00695137 -8.85546875 14.35546875 C-8.87158203 13.34033203 -8.88769531 12.32519531 -8.90429688 11.27929688 C-8.90494141 10.30541016 -8.90558594 9.33152344 -8.90625 8.328125 C-8.90923096 7.43488525 -8.91221191 6.54164551 -8.9152832 5.62133789 C-8.54296875 3.29296875 -8.54296875 3.29296875 -7.36669922 1.49658203 C-4.8293229 -0.1780184 -3.02429731 -0.04800472 0 0 Z " fill="#F3663F" transform="translate(8.54296875,32.70703125)"/>
<path d="M0 0 C3.25897878 1.77463718 5.41166717 3.527396 7.3125 6.75 C6.5 9.5 6.5 9.5 5.3125 11.75 C-1.09949226 11.12137331 -1.09949226 11.12137331 -4.0625 9.25 C-8.29184476 6.83323156 -12.98839662 6.0407838 -17.75390625 7.29296875 C-20.52234881 8.43155577 -22.56645223 9.62895223 -24.6875 11.75 C-27.75 11.9375 -27.75 11.9375 -30.6875 11.75 C-31.6875 10.75 -31.6875 10.75 -32.3125 8.0625 C-31.6875 4.75 -31.6875 4.75 -29.78515625 3.0546875 C-20.70693486 -3.03669606 -10.22995047 -4.91882574 0 0 Z M-27.6875 5.75 C-28.0175 6.74 -28.3475 7.73 -28.6875 8.75 C-28.171875 8.481875 -27.65625 8.21375 -27.125 7.9375 C-25.9184375 7.3496875 -25.9184375 7.3496875 -24.6875 6.75 C-23.676875 6.21375 -22.66625 5.6775 -21.625 5.125 C-16.77202872 3.10466432 -11.84509076 2.92242097 -6.6875 3.75 C-4.31235988 4.85686142 -2.34065243 6.08859693 -0.24609375 7.65625 C1.26800631 8.94147525 1.26800631 8.94147525 3.3125 8.75 C1.92747412 5.31629001 0.68125613 4.01594026 -2.6875 2.5 C-11.69265796 -1.11647144 -19.77048675 0.07214202 -27.6875 5.75 Z " fill="#F3663F" transform="translate(42.6875,2.25)"/>
<path d="M0 0 C2 1.8125 2 1.8125 2.9375 4.875 C2.958125 5.844375 2.97875 6.81375 3 7.8125 C2.34 8.4725 1.68 9.1325 1 9.8125 C-4.56818182 9.24431818 -4.56818182 9.24431818 -6 7.8125 C-10.03160191 7.54956944 -11.55892734 7.51845156 -15 9.8125 C-17.6875 9.4375 -17.6875 9.4375 -20 8.8125 C-20.33 7.1625 -20.66 5.5125 -21 3.8125 C-14.05183539 -2.20924266 -8.82110321 -3.49168669 0 0 Z M-18 4.8125 C-14.94326914 6.15724907 -14.94326914 6.15724907 -11.625 4.75 C-7.61035669 3.71173018 -6.60385275 4.11068065 -3 5.8125 C-2.01 5.4825 -1.02 5.1525 0 4.8125 C-3.72513881 2.01864589 -6.53343312 1.35341249 -11.0625 1.5078125 C-13.83567458 1.94391657 -15.77844431 3.14633323 -18 4.8125 Z " fill="#F3663F" transform="translate(39,12.1875)"/>
<path d="M0 0 C1.485 0.99 1.485 0.99 3 2 C3.99 1.34 4.98 0.68 6 0 C6.66 0.99 7.32 1.98 8 3 C8.99 2.01 9.98 1.02 11 0 C11.33 0.33 11.66 0.66 12 1 C11.93600474 2.64933228 11.79926084 4.29615131 11.625 5.9375 C11.53476562 6.83339844 11.44453125 7.72929688 11.3515625 8.65234375 C11 11 11 11 10 13 C9.01 13 8.02 13 7 13 C6.34 12.34 5.68 11.68 5 11 C4.67 11.66 4.34 12.32 4 13 C2.68 12.67 1.36 12.34 0 12 C-0.19401633 10.18818595 -0.38004375 8.37551468 -0.5625 6.5625 C-0.66691406 5.55316406 -0.77132813 4.54382812 -0.87890625 3.50390625 C-0.91886719 2.67761719 -0.95882813 1.85132813 -1 1 C-0.67 0.67 -0.34 0.34 0 0 Z " fill="#F3663F" transform="translate(15,40)"/>
<path d="M0 0 C1.2065625 0.0309375 1.2065625 0.0309375 2.4375 0.0625 C3.03482819 2.82514289 3.4375 5.22282769 3.4375 8.0625 C2.4475 8.3925 1.4575 8.7225 0.4375 9.0625 C-0.29573796 11.07758358 -0.29573796 11.07758358 -0.5625 13.0625 C-1.5525 13.0625 -2.5425 13.0625 -3.5625 13.0625 C-3.58936553 11.08340602 -3.60883375 9.10421029 -3.625 7.125 C-3.63660156 6.02285156 -3.64820313 4.92070313 -3.66015625 3.78515625 C-3.52747618 0.086036 -3.52747618 0.086036 0 0 Z " fill="#F3663F" transform="translate(37.5625,39.9375)"/>
<path d="M0 0 C4.55555556 0.55555556 4.55555556 0.55555556 6 2 C6.04063832 3.66617115 6.042721 5.33388095 6 7 C3.6875 8.125 3.6875 8.125 1 9 C0.01 8.34 -0.98 7.68 -2 7 C-2.3125 4.5 -2.3125 4.5 -2 2 C-1.34 1.34 -0.68 0.68 0 0 Z " fill="#F3663F" transform="translate(28,21)"/>
<path d="M0 0 C0.66 0 1.32 0 2 0 C3.26237731 2.52475462 3.09856404 4.31200466 3.0625 7.125 C3.05347656 8.03507812 3.04445313 8.94515625 3.03515625 9.8828125 C3.02355469 10.58148438 3.01195312 11.28015625 3 12 C1.68 12.33 0.36 12.66 -1 13 C-1.02686553 11.02090602 -1.04633375 9.04171029 -1.0625 7.0625 C-1.07410156 5.96035156 -1.08570313 4.85820313 -1.09765625 3.72265625 C-1 1 -1 1 0 0 Z " fill="#F3663F" transform="translate(44,40)"/>
<path d="M0 0 C0.66 0 1.32 0 2 0 C2 4.29 2 8.58 2 13 C1.01 13 0.02 13 -1 13 C-1.02686553 11.02090602 -1.04633375 9.04171029 -1.0625 7.0625 C-1.07410156 5.96035156 -1.08570312 4.85820313 -1.09765625 3.72265625 C-1 1 -1 1 0 0 Z " fill="#F3663F" transform="translate(30,40)"/>
<path d="M0 0 C1.32 0 2.64 0 4 0 C4 0.99 4 1.98 4 3 C2.68 3 1.36 3 0 3 C0 2.01 0 1.02 0 0 Z " fill="#F3663F" transform="translate(28,33)"/>
</svg>
