<?xml version="1.0" encoding="UTF-8"?>
<svg version="1.1" xmlns="http://www.w3.org/2000/svg" width="60" height="60">
<path d="M0 0 C2.43587369 1.10419955 3.46420069 2.39737272 5.1328125 4.47265625 C7.29936524 6.75644669 8.47821329 7.79345126 11.578125 8.4765625 C16.55152982 8.74902075 16.55152982 8.74902075 20.63671875 6.3515625 C21.08917969 5.87589844 21.54164062 5.40023438 22.0078125 4.91015625 C24.6953125 5.22265625 24.6953125 5.22265625 27.0078125 5.91015625 C27.6953125 8.22265625 27.6953125 8.22265625 28.0078125 10.91015625 C27.01059413 11.91293016 26.01026047 12.91261023 25.0078125 13.91015625 C23.69423031 16.99583518 23.36403584 19.61339676 24.0078125 22.91015625 C26.16719536 25.5753788 28.45975266 27.68292003 31.1015625 29.8671875 C33.0078125 31.91015625 33.0078125 31.91015625 32.94921875 34.0390625 C30.8144214 38.28208296 26.52033395 39.73077374 22.2578125 41.22265625 C15.78775821 42.58087375 9.53392304 42.1251591 3.7578125 38.78515625 C-2.6941522 34.23619528 -7.18214509 28.67389186 -8.9921875 20.91015625 C-9.80586976 13.7032562 -7.99751393 6.93136767 -3.60546875 1.0546875 C-1.9921875 -0.08984375 -1.9921875 -0.08984375 0 0 Z M-0.9921875 2.91015625 C-5.10671077 7.56135646 -6.43095067 12.65792888 -6.2421875 18.828125 C-5.46384127 25.31028971 -2.97168043 29.6593696 2.0078125 33.91015625 C2.9359375 34.74546875 2.9359375 34.74546875 3.8828125 35.59765625 C9.97044482 39.35766444 16.21558429 39.46173554 23.0078125 37.91015625 C25.58236405 36.77863626 27.66185379 35.49112842 30.0078125 33.91015625 C24.84094875 27.60314393 19.12594222 21.87560807 13.35620117 16.12817383 C11.67833566 14.45573431 10.00596424 12.77793081 8.33398438 11.09960938 C7.2711544 10.03743905 6.20801489 8.97557835 5.14453125 7.9140625 C4.64354416 7.41105118 4.14255707 6.90803986 3.62638855 6.38978577 C1.65632993 3.96940077 1.65632993 3.96940077 -0.9921875 2.91015625 Z M22.0078125 7.91015625 C22.0078125 8.90015625 22.0078125 9.89015625 22.0078125 10.91015625 C22.9978125 10.91015625 23.9878125 10.91015625 25.0078125 10.91015625 C25.0078125 9.92015625 25.0078125 8.93015625 25.0078125 7.91015625 C24.0178125 7.91015625 23.0278125 7.91015625 22.0078125 7.91015625 Z M13.0078125 11.91015625 C13.9978125 12.90015625 14.9878125 13.89015625 16.0078125 14.91015625 C17.3278125 13.59015625 18.6478125 12.27015625 20.0078125 10.91015625 C17.57983939 10.91015625 15.37874245 11.4110131 13.0078125 11.91015625 Z M20.0078125 13.91015625 C19.3478125 15.23015625 18.6878125 16.55015625 18.0078125 17.91015625 C19.4928125 18.90015625 19.4928125 18.90015625 21.0078125 19.91015625 C21.0078125 17.93015625 21.0078125 15.95015625 21.0078125 13.91015625 C20.6778125 13.91015625 20.3478125 13.91015625 20.0078125 13.91015625 Z " fill="#F3663F" transform="translate(9.9921875,8.08984375)"/>
<path d="M0 0 C0.66 0 1.32 0 2 0 C1.67 1.98 1.34 3.96 1 6 C2.6045556 5.85851011 4.20863767 5.71164314 5.8125 5.5625 C7.15248047 5.44068359 7.15248047 5.44068359 8.51953125 5.31640625 C11.12743559 5.06510233 11.12743559 5.06510233 14 4 C14 4.66 14 5.32 14 6 C15.11375 6.103125 16.2275 6.20625 17.375 6.3125 C19.169375 6.6528125 19.169375 6.6528125 21 7 C21.99 8.485 21.99 8.485 23 10 C22.67 11.32 22.34 12.64 22 14 C11.44 14 0.88 14 -10 14 C-10 9 -10 9 -8.8125 7.1875 C-6.44017475 5.63321794 -4.77958655 5.77462812 -2 6 C-1.34 4.02 -0.68 2.04 0 0 Z M-6 9 C-6.99 10.485 -6.99 10.485 -8 12 C1.24 12 10.48 12 20 12 C19.67 11.01 19.34 10.02 19 9 C14.87513162 8.91323092 10.75049616 8.85968705 6.625 8.8125 C5.449375 8.78736328 4.27375 8.76222656 3.0625 8.73632812 C1.94101563 8.72666016 0.81953125 8.71699219 -0.3359375 8.70703125 C-1.37282715 8.6913208 -2.4097168 8.67561035 -3.47802734 8.65942383 C-4.72640381 8.82800903 -4.72640381 8.82800903 -6 9 Z " fill="#F3663F" transform="translate(10,46)"/>
<path d="M0 0 C6.09940955 -0.42064893 9.13663653 -0.08964656 14 4 C18.74224759 9.38309186 19.11238078 12.03239134 19 19 C18.34 19 17.68 19 17 19 C16.85304688 18.33613281 16.70609375 17.67226563 16.5546875 16.98828125 C14.95051623 10.67300931 13.64623216 7.40904583 8 4 C5.32288263 3.08833301 2.7924874 2.52960968 0 2 C0 1.34 0 0.68 0 0 Z " fill="#F3663F" transform="translate(32,0)"/>
<path d="M0 0 C5.29877676 -0.50464541 7.90716575 0.63478073 12 4 C14.92675987 7.70722917 15.3259948 10.32740781 15 15 C14.01 15 13.02 15 12 15 C11.773125 13.741875 11.54625 12.48375 11.3125 11.1875 C10.52552812 8.05069661 10.25049131 7.20987109 7.6875 5.0625 C5.10854349 4.04291254 2.74196501 3.39170929 0 3 C0 2.01 0 1.02 0 0 Z " fill="#F3663F" transform="translate(32,4)"/>
<path d="M0 0 C3.39145689 0.30831426 5.53408183 0.66000566 8.3125 2.6875 C10.33999434 5.46591817 10.69168574 7.60854311 11 11 C10.01 11 9.02 11 8 11 C7.62875 10.05125 7.2575 9.1025 6.875 8.125 C5.26004095 4.74446192 5.26004095 4.74446192 1.8125 3.625 C0.884375 3.41875 -0.04375 3.2125 -1 3 C-0.67 2.01 -0.34 1.02 0 0 Z " fill="#F3663F" transform="translate(32,8)"/>
</svg>
