<?xml version="1.0" encoding="UTF-8"?>
<svg version="1.1" xmlns="http://www.w3.org/2000/svg" width="60" height="60">
<path d="M0 0 C1.67542976 0.28604898 3.34385343 0.61781233 5 1 C5.02505615 1.72179443 5.0501123 2.44358887 5.07592773 3.18725586 C5.19151302 6.437535 5.31440774 9.68749688 5.4375 12.9375 C5.47681641 14.07380859 5.51613281 15.21011719 5.55664062 16.38085938 C5.59853516 17.46044922 5.64042969 18.54003906 5.68359375 19.65234375 C5.73858032 21.15269165 5.73858032 21.15269165 5.79467773 22.68334961 C5.74671841 24.96069188 5.74671841 24.96069188 7 26 C7.07179964 27.51928038 7.08392007 29.04167482 7.0625 30.5625 C7.05347656 31.38878906 7.04445312 32.21507812 7.03515625 33.06640625 C7.02355469 33.70449219 7.01195312 34.34257813 7 35 C8.65 35.33 10.3 35.66 12 36 C12 41.28 12 46.56 12 52 C10.02 52.495 10.02 52.495 8 53 C8 53.99 8 54.98 8 56 C5.03 56 2.06 56 -1 56 C-1 55.01 -1 54.02 -1 53 C-10.57 53 -20.14 53 -30 53 C-30 53.99 -30 54.98 -30 56 C-33.3 56 -36.6 56 -40 56 C-40 55.01 -40 54.02 -40 53 C-41.32 52.34 -42.64 51.68 -44 51 C-44.05384521 48.70858714 -44.09272087 46.41681812 -44.125 44.125 C-44.14820313 42.84882812 -44.17140625 41.57265625 -44.1953125 40.2578125 C-44 37 -44 37 -42 35 C-39.05903263 34.82460564 -36.21346651 34.76867625 -33.2734375 34.8046875 C-31.97921371 34.80893234 -31.97921371 34.80893234 -30.65884399 34.81326294 C-27.8974228 34.82447667 -25.1363235 34.84958316 -22.375 34.875 C-20.50521301 34.88502827 -18.63542095 34.89415438 -16.765625 34.90234375 C-12.17695891 34.92441988 -7.58853407 34.95895766 -3 35 C-3.01160156 34.36191406 -3.02320313 33.72382812 -3.03515625 33.06640625 C-3.04417969 32.24011719 -3.05320313 31.41382812 -3.0625 30.5625 C-3.07410156 29.73878906 -3.08570313 28.91507813 -3.09765625 28.06640625 C-3 26 -3 26 -2 25 C-1.85447268 23.23266824 -1.77277531 21.45999006 -1.71875 19.6875 C-1.68136719 18.61242187 -1.64398438 17.53734375 -1.60546875 16.4296875 C-1.57066406 15.29789063 -1.53585938 14.16609375 -1.5 13 C-1.43144506 10.77069493 -1.3587576 8.54151176 -1.28125 6.3125 C-1.25095703 5.31863281 -1.22066406 4.32476562 -1.18945312 3.30078125 C-1 1 -1 1 0 0 Z M1 3 C1 10.26 1 17.52 1 25 C1.66 24.67 2.32 24.34 3 24 C3 17.07 3 10.14 3 3 C2.34 3 1.68 3 1 3 Z M0 28 C0 30.31 0 32.62 0 35 C1.32 35 2.64 35 4 35 C4 32.69 4 30.38 4 28 C2.68 28 1.36 28 0 28 Z M-42 39 C-42.09823937 40.66429051 -42.12973631 42.33281931 -42.125 44 C-42.12757812 44.9075 -42.13015625 45.815 -42.1328125 46.75 C-42.25173779 48.96966611 -42.25173779 48.96966611 -41 50 C-39.40389018 50.09333705 -37.80366572 50.11745372 -36.20483398 50.11352539 C-34.67335976 50.11341209 -34.67335976 50.11341209 -33.11094666 50.11329651 C-32.0005452 50.10813522 -30.89014374 50.10297394 -29.74609375 50.09765625 C-28.61551041 50.0962413 -27.48492706 50.09482635 -26.32008362 50.09336853 C-22.69252935 50.08775019 -19.06503576 50.07519458 -15.4375 50.0625 C-12.98502693 50.05748736 -10.5325529 50.05292405 -8.08007812 50.04882812 C-2.05336187 50.0377748 3.97330876 50.02049788 10 50 C10 46.04 10 42.08 10 38 C2.75512951 37.97535887 -4.48971682 37.9571682 -11.73461914 37.94506836 C-14.20142033 37.94002644 -16.66821852 37.93319309 -19.13500977 37.92456055 C-22.67204529 37.91248875 -26.20904145 37.90677044 -29.74609375 37.90234375 C-30.85649521 37.89718246 -31.96689667 37.89202118 -33.11094666 37.88670349 C-34.13192947 37.88662796 -35.15291229 37.88655243 -36.20483398 37.88647461 C-37.56051735 37.88314369 -37.56051735 37.88314369 -38.94358826 37.87974548 C-40.99253581 37.77099538 -40.99253581 37.77099538 -42 39 Z M-37 53 C-33 54 -33 54 -33 54 Z M1 53 C5 54 5 54 5 54 Z " fill="#F3663F" transform="translate(46,2)"/>
<path d="M0 0 C0.474375 0.474375 0.94875 0.94875 1.4375 1.4375 C1.4375 2.4275 1.4375 3.4175 1.4375 4.4375 C-1.26249726 3.43464388 -3.66028489 2.37787507 -6.125 0.875 C-10.57015746 -1.74650312 -14.4178628 -1.90547581 -19.5625 -1.5625 C-24.20133889 -0.3052446 -27.77060296 1.48824675 -31.5625 4.4375 C-32.5525 4.4375 -33.5425 4.4375 -34.5625 4.4375 C-34.5625 3.4475 -34.5625 2.4575 -34.5625 1.4375 C-32.515625 -0.1328125 -32.515625 -0.1328125 -29.8125 -1.6875 C-28.93078125 -2.20570312 -28.0490625 -2.72390625 -27.140625 -3.2578125 C-17.51404933 -8.12944322 -8.72983249 -5.32306859 0 0 Z " fill="#F3663F" transform="translate(37.5625,17.5625)"/>
<path d="M0 0 C1.89662394 1.17410054 3.76900659 2.38767106 5.625 3.625 C5.625 4.615 5.625 5.605 5.625 6.625 C0.625 4.625 0.625 4.625 -1.6875 3.5 C-5.99788692 2.09661821 -10.17171938 1.6175357 -14.33984375 3.5234375 C-16.03301389 4.53289623 -17.70522412 5.57729749 -19.375 6.625 C-20.365 6.625 -21.355 6.625 -22.375 6.625 C-20.63370996 2.45990422 -18.66301518 1.22469209 -14.66015625 -0.61328125 C-9.47827015 -2.34057662 -5.01699494 -2.0439609 0 0 Z " fill="#F3663F" transform="translate(29.375,19.375)"/>
<path d="M0 0 C3.5 1.875 3.5 1.875 6 4 C6 4.66 6 5.32 6 6 C3.83125748 5.49396008 2.00032373 5.00016187 0 4 C-4.82612943 3.72156946 -8.49907826 4.24354273 -13 6 C-13 5.01 -13 4.02 -13 3 C-9.09802861 -0.29228836 -4.93490868 -0.89463257 0 0 Z " fill="#F3663F" transform="translate(25,24)"/>
<path d="M0 0 C2.0625 0.4375 2.0625 0.4375 4 1 C4.33 2.32 4.66 3.64 5 5 C3.02 5.99 3.02 5.99 1 7 C0.01 6.34 -0.98 5.68 -2 5 C-1.125 1.125 -1.125 1.125 0 0 Z " fill="#F3663F" transform="translate(24,41)"/>
<path d="M0 0 C2.0625 0.4375 2.0625 0.4375 4 1 C4.33 2.32 4.66 3.64 5 5 C3.02 5.99 3.02 5.99 1 7 C0.01 6.34 -0.98 5.68 -2 5 C-1.125 1.125 -1.125 1.125 0 0 Z " fill="#F3663F" transform="translate(9,41)"/>
<path d="M0 0 C3.63 0 7.26 0 11 0 C11 0.99 11 1.98 11 3 C7.37 3 3.74 3 0 3 C0 2.01 0 1.02 0 0 Z " fill="#F3663F" transform="translate(30,43)"/>
<path d="M0 0 C1.67542976 0.28604898 3.34385343 0.61781233 5 1 C4.67 2.65 4.34 4.3 4 6 C2.68 6 1.36 6 0 6 C-0.38218767 4.34385343 -0.71395102 2.67542976 -1 1 C-0.67 0.67 -0.34 0.34 0 0 Z " fill="#F3663F" transform="translate(16,41)"/>
<path d="M0 0 C5.625 -0.25 5.625 -0.25 9 2 C9 2.66 9 3.32 9 4 C5.37 4 1.74 4 -2 4 C-1.34 2.68 -0.68 1.36 0 0 Z " fill="#F3663F" transform="translate(18,30)"/>
<path d="M0 0 C1.98 0 3.96 0 6 0 C5.67 0.99 5.34 1.98 5 3 C3.35 2.67 1.7 2.34 0 2 C0 1.34 0 0.68 0 0 Z " fill="#F3663F" transform="translate(42,43)"/>
</svg>
