<?xml version="1.0" encoding="UTF-8"?>
<svg version="1.1" xmlns="http://www.w3.org/2000/svg" width="60" height="60">
<path d="M0 0 C2.125 0.375 2.125 0.375 4 1 C4.5625 2.9375 4.5625 2.9375 5 5 C4.67 5.33 4.34 5.66 4 6 C6.97 6.495 6.97 6.495 10 7 C10 7.99 10 8.98 10 10 C2.08 10.33 -5.84 10.66 -14 11 C-14 21.23 -14 31.46 -14 42 C2.335 42.495 2.335 42.495 19 43 C19 32.11 19 21.22 19 10 C17.02 10 15.04 10 13 10 C12.67 9.01 12.34 8.02 12 7 C13.27875 6.938125 14.5575 6.87625 15.875 6.8125 C16.59429687 6.77769531 17.31359375 6.74289063 18.0546875 6.70703125 C18.69664063 6.80371094 19.33859375 6.90039062 20 7 C22.41426888 10.62140333 22.27338112 13.26050265 22.23046875 17.44140625 C22.23001053 18.16488754 22.22955231 18.88836884 22.2290802 19.6337738 C22.22606248 21.16105797 22.21819051 22.6883392 22.20581055 24.21557617 C22.18754104 26.55723938 22.18530102 28.89850729 22.18554688 31.24023438 C22.18063191 32.72396176 22.17480369 34.20768647 22.16796875 35.69140625 C22.16685593 36.39350723 22.1657431 37.09560822 22.16459656 37.81898499 C22.11608638 42.76782724 22.11608638 42.76782724 21 45 C15.74894558 45.02464928 10.49792455 45.04283568 5.24682617 45.05493164 C3.45905979 45.05997218 1.67129755 45.06680454 -0.11645508 45.07543945 C-2.68051168 45.0875173 -5.24451397 45.09323094 -7.80859375 45.09765625 C-9.01484657 45.10539818 -9.01484657 45.10539818 -10.24546814 45.11329651 C-12.16401715 45.11349215 -14.08245368 45.06201983 -16 45 C-17.99384779 43.00615221 -17.16393954 39.04694988 -17.16796875 36.31640625 C-17.17296135 35.16035133 -17.17296135 35.16035133 -17.17805481 33.98094177 C-17.1831271 32.34757079 -17.18546304 30.7141894 -17.18530273 29.08081055 C-17.1874878 26.57648701 -17.20563595 24.07260479 -17.22460938 21.56835938 C-17.22754347 19.98437651 -17.22952816 18.40039155 -17.23046875 16.81640625 C-17.23765427 16.0642836 -17.24483978 15.31216095 -17.25224304 14.5372467 C-17.22882279 9.22882279 -17.22882279 9.22882279 -15 7 C-12.41935871 6.85502015 -9.95056116 6.81322455 -7.375 6.875 C-6.66859375 6.88402344 -5.9621875 6.89304687 -5.234375 6.90234375 C-3.48943902 6.92592397 -1.74467705 6.96179539 0 7 C-0.66 5.35 -1.32 3.7 -2 2 C-1.34 1.34 -0.68 0.68 0 0 Z " fill="#F3663F" transform="translate(17,11)"/>
<path d="M0 0 C1.17433594 0.01417969 2.34867188 0.02835938 3.55859375 0.04296875 C5.32396484 0.05263672 5.32396484 0.05263672 7.125 0.0625 C9.99609375 0.23046875 9.99609375 0.23046875 10.99609375 1.23046875 C11.0840035 3.52198292 11.10303413 5.81619399 11.09375 8.109375 C11.09233505 8.79603745 11.0909201 9.48269989 11.08946228 10.19017029 C11.08384854 12.39114676 11.07129382 14.59202284 11.05859375 16.79296875 C11.05358051 18.28189958 11.0490173 19.77083199 11.04492188 21.25976562 C11.03387468 24.9166995 11.01660088 28.57357433 10.99609375 32.23046875 C10.33609375 32.23046875 9.67609375 32.23046875 8.99609375 32.23046875 C8.99609375 29.26046875 8.99609375 26.29046875 8.99609375 23.23046875 C8.33609375 23.23046875 7.67609375 23.23046875 6.99609375 23.23046875 C6.66609375 24.22046875 6.33609375 25.21046875 5.99609375 26.23046875 C4.34609375 26.23046875 2.69609375 26.23046875 0.99609375 26.23046875 C0.66609375 25.24046875 0.33609375 24.25046875 -0.00390625 23.23046875 C-0.66390625 23.23046875 -1.32390625 23.23046875 -2.00390625 23.23046875 C-2.00390625 27.52046875 -2.00390625 31.81046875 -2.00390625 36.23046875 C1.62609375 36.23046875 5.25609375 36.23046875 8.99609375 36.23046875 C8.99609375 35.24046875 8.99609375 34.25046875 8.99609375 33.23046875 C9.65609375 33.23046875 10.31609375 33.23046875 10.99609375 33.23046875 C10.99609375 34.88046875 10.99609375 36.53046875 10.99609375 38.23046875 C8.51685574 38.2573197 6.03790535 38.27723422 3.55859375 38.29296875 C2.85154297 38.30134766 2.14449219 38.30972656 1.41601562 38.31835938 C-0.39084184 38.32700463 -2.19778228 38.28266886 -4.00390625 38.23046875 C-5.99775404 36.23662096 -5.16784579 32.27741863 -5.171875 29.546875 C-5.1768676 28.39082008 -5.1768676 28.39082008 -5.18196106 27.21141052 C-5.18703335 25.57803954 -5.18936929 23.94465815 -5.18920898 22.3112793 C-5.19139405 19.80695576 -5.2095422 17.30307354 -5.22851562 14.79882812 C-5.23144972 13.21484526 -5.23343441 11.6308603 -5.234375 10.046875 C-5.24156052 9.29475235 -5.24874603 8.5426297 -5.25614929 7.76771545 C-5.22364706 0.40077396 -5.22364706 0.40077396 0 0 Z M-2.00390625 3.23046875 C-2.00390625 8.84046875 -2.00390625 14.45046875 -2.00390625 20.23046875 C-0.68390625 19.57046875 0.63609375 18.91046875 1.99609375 18.23046875 C1.99609375 17.24046875 1.99609375 16.25046875 1.99609375 15.23046875 C2.98609375 15.23046875 3.97609375 15.23046875 4.99609375 15.23046875 C5.09921875 15.86984375 5.20234375 16.50921875 5.30859375 17.16796875 C5.53546875 17.84859375 5.76234375 18.52921875 5.99609375 19.23046875 C6.98609375 19.56046875 7.97609375 19.89046875 8.99609375 20.23046875 C8.99609375 14.62046875 8.99609375 9.01046875 8.99609375 3.23046875 C5.36609375 3.23046875 1.73609375 3.23046875 -2.00390625 3.23046875 Z M2.99609375 20.23046875 C2.66609375 21.22046875 2.33609375 22.21046875 1.99609375 23.23046875 C2.98609375 23.23046875 3.97609375 23.23046875 4.99609375 23.23046875 C4.66609375 22.24046875 4.33609375 21.25046875 3.99609375 20.23046875 C3.66609375 20.23046875 3.33609375 20.23046875 2.99609375 20.23046875 Z " fill="#F3663F" transform="translate(49.00390625,17.76953125)"/>
<path d="M0 0 C3.3 0 6.6 0 10 0 C10.33 1.65 10.66 3.3 11 5 C11.66 5 12.32 5 13 5 C13.33 3.35 13.66 1.7 14 0 C14.66 0 15.32 0 16 0 C15.53199289 4.05606165 15.12046792 7.46588679 13 11 C12.01 10.67 11.02 10.34 10 10 C9.26953125 8.15234375 9.26953125 8.15234375 8.8125 5.9375 C8.65394531 5.20402344 8.49539062 4.47054687 8.33203125 3.71484375 C8.22246094 3.14894531 8.11289062 2.58304688 8 2 C7.34 2 6.68 2 6 2 C6 4.97 6 7.94 6 11 C5.01 11 4.02 11 3 11 C3 8.03 3 5.06 3 2 C2.01 2 1.02 2 0 2 C0 1.34 0 0.68 0 0 Z " fill="#F3663F" transform="translate(11,32)"/>
<path d="M0 0 C0.7734375 -0.00515625 1.546875 -0.0103125 2.34375 -0.015625 C4.5 0.25 4.5 0.25 7.5 2.25 C7.5 3.24 7.5 4.23 7.5 5.25 C6.91992188 5.08242187 6.33984375 4.91484375 5.7421875 4.7421875 C0.6507692 3.414722 -2.53561901 2.95874724 -7.5 5.25 C-7.5 4.26 -7.5 3.27 -7.5 2.25 C-4.377998 0.16866533 -3.56733011 -0.0237822 0 0 Z " fill="#F3663F" transform="translate(18.5,3.75)"/>
<path d="M0 0 C0.66 0.33 1.32 0.66 2 1 C1.67 1.99 1.34 2.98 1 4 C-0.3921875 3.7215625 -0.3921875 3.7215625 -1.8125 3.4375 C-5.01343771 2.75876119 -5.01343771 2.75876119 -8 4 C-8.33 3.01 -8.66 2.02 -9 1 C-5.64406166 -1.11299821 -3.77811119 -1.09366377 0 0 Z " fill="#F3663F" transform="translate(22,8)"/>
<path d="M0 0 C0.99 0 1.98 0 3 0 C3 0.99 3 1.98 3 3 C2.01 3 1.02 3 0 3 C0 2.01 0 1.02 0 0 Z " fill="#F3663F" transform="translate(51,29)"/>
<path d="M0 0 C0.99 0 1.98 0 3 0 C3 0.66 3 1.32 3 2 C2.01 2 1.02 2 0 2 C0 1.34 0 0.68 0 0 Z " fill="#F3663F" transform="translate(51,45)"/>
<path d="M0 0 C0.66 0 1.32 0 2 0 C2 0.99 2 1.98 2 3 C1.34 3 0.68 3 0 3 C0 2.01 0 1.02 0 0 Z " fill="#F3663F" transform="translate(55,29)"/>
<path d="M0 0 C0.66 0 1.32 0 2 0 C2 0.99 2 1.98 2 3 C1.34 3 0.68 3 0 3 C0 2.01 0 1.02 0 0 Z " fill="#F3663F" transform="translate(48,29)"/>
<path d="M0 0 C0.99 0 1.98 0 3 0 C3 0.66 3 1.32 3 2 C2.01 2 1.02 2 0 2 C0 1.34 0 0.68 0 0 Z " fill="#F3663F" transform="translate(51,26)"/>
<path d="M0 0 C0.99 0 1.98 0 3 0 C3 0.66 3 1.32 3 2 C2.01 2 1.02 2 0 2 C0 1.34 0 0.68 0 0 Z " fill="#F3663F" transform="translate(51,23)"/>
<path d="M0 0 C0.66 0 1.32 0 2 0 C2 0.66 2 1.32 2 2 C1.34 2 0.68 2 0 2 C0 1.34 0 0.68 0 0 Z " fill="#F3663F" transform="translate(55,45)"/>
<path d="M0 0 C0.66 0 1.32 0 2 0 C2 0.66 2 1.32 2 2 C1.34 2 0.68 2 0 2 C0 1.34 0 0.68 0 0 Z " fill="#F3663F" transform="translate(48,45)"/>
<path d="M0 0 C0.66 0 1.32 0 2 0 C2 0.66 2 1.32 2 2 C1.34 2 0.68 2 0 2 C0 1.34 0 0.68 0 0 Z " fill="#F3663F" transform="translate(55,33)"/>
<path d="M0 0 C0.66 0 1.32 0 2 0 C2 0.66 2 1.32 2 2 C1.34 2 0.68 2 0 2 C0 1.34 0 0.68 0 0 Z " fill="#F3663F" transform="translate(48,33)"/>
<path d="M0 0 C0.66 0 1.32 0 2 0 C2 0.66 2 1.32 2 2 C1.34 2 0.68 2 0 2 C0 1.34 0 0.68 0 0 Z " fill="#F3663F" transform="translate(55,26)"/>
<path d="M0 0 C0.66 0 1.32 0 2 0 C2 0.66 2 1.32 2 2 C1.34 2 0.68 2 0 2 C0 1.34 0 0.68 0 0 Z " fill="#F3663F" transform="translate(48,26)"/>
<path d="M0 0 C0.66 0 1.32 0 2 0 C2 0.66 2 1.32 2 2 C1.34 2 0.68 2 0 2 C0 1.34 0 0.68 0 0 Z " fill="#F3663F" transform="translate(55,23)"/>
<path d="M0 0 C0.66 0 1.32 0 2 0 C2 0.66 2 1.32 2 2 C1.34 2 0.68 2 0 2 C0 1.34 0 0.68 0 0 Z " fill="#F3663F" transform="translate(48,23)"/>
</svg>
